<!-- Generated by IcoMoon.io -->
<svg version="1.1" xmlns="http://www.w3.org/2000/svg" width="32" height="32" viewBox="0 0 32 32">
<title>Group-2144</title>
<path fill="#eb00ff" d="M1.611 5.622c0.006 0.464-0.347 0.845-0.789 0.85s-0.805-0.366-0.811-0.829c-0.006-0.464 0.347-0.845 0.789-0.85s0.805 0.366 0.811 0.829z"></path>
<path fill="#eb00ff" d="M1.793 19.632c0.006 0.464-0.347 0.845-0.789 0.85s-0.805-0.366-0.811-0.829c-0.006-0.464 0.347-0.845 0.789-0.85s0.805 0.366 0.811 0.829z"></path>
<path fill="#eb00ff" d="M13.575 5.467c0.006 0.464-0.347 0.845-0.789 0.85s-0.805-0.366-0.811-0.829c-0.006-0.464 0.347-0.845 0.789-0.85s0.805 0.366 0.811 0.829z"></path>
<path fill="#eb00ff" d="M13.757 19.477c0.006 0.464-0.347 0.845-0.789 0.85s-0.805-0.366-0.811-0.829c-0.006-0.464 0.347-0.845 0.789-0.85s0.805 0.366 0.811 0.829z"></path>
<path fill="#eb00ff" d="M25.538 5.311c0.006 0.464-0.347 0.845-0.789 0.85s-0.805-0.366-0.811-0.829c-0.006-0.464 0.347-0.845 0.789-0.85s0.805 0.366 0.811 0.829z"></path>
<path fill="#eb00ff" d="M25.721 19.321c0.006 0.464-0.347 0.845-0.789 0.85s-0.805-0.366-0.811-0.829c-0.006-0.464 0.347-0.845 0.789-0.85s0.805 0.366 0.811 0.829z"></path>
<path fill="#eb00ff" d="M1.702 12.627c0.006 0.464-0.347 0.845-0.789 0.85s-0.805-0.366-0.811-0.829c-0.006-0.464 0.347-0.845 0.789-0.85s0.805 0.366 0.811 0.829z"></path>
<path fill="#eb00ff" d="M1.885 26.637c0.006 0.464-0.347 0.845-0.789 0.85s-0.805-0.366-0.811-0.829c-0.006-0.464 0.347-0.845 0.789-0.85s0.805 0.366 0.811 0.829z"></path>
<path fill="#eb00ff" d="M13.666 12.472c0.006 0.464-0.347 0.845-0.789 0.85s-0.805-0.366-0.811-0.829c-0.006-0.464 0.347-0.845 0.789-0.85s0.805 0.366 0.811 0.829z"></path>
<path fill="#eb00ff" d="M13.848 26.481c0.006 0.464-0.347 0.845-0.789 0.85s-0.805-0.366-0.811-0.829c-0.006-0.464 0.347-0.845 0.789-0.85s0.805 0.366 0.811 0.829z"></path>
<path fill="#eb00ff" d="M25.629 12.316c0.006 0.464-0.347 0.845-0.789 0.85s-0.805-0.366-0.811-0.829c-0.006-0.464 0.347-0.845 0.789-0.85s0.805 0.366 0.811 0.829z"></path>
<path fill="#eb00ff" d="M25.812 26.326c0.006 0.464-0.347 0.845-0.789 0.85s-0.805-0.366-0.811-0.829c-0.006-0.464 0.347-0.845 0.789-0.85s0.805 0.366 0.811 0.829z"></path>
<path fill="#eb00ff" d="M7.593 5.545c0.006 0.464-0.347 0.845-0.789 0.85s-0.805-0.366-0.811-0.829c-0.006-0.464 0.347-0.845 0.789-0.85s0.805 0.366 0.811 0.829z"></path>
<path fill="#eb00ff" d="M7.775 19.554c0.006 0.464-0.347 0.845-0.789 0.85s-0.805-0.366-0.811-0.829c-0.006-0.464 0.347-0.845 0.789-0.85s0.805 0.366 0.811 0.829z"></path>
<path fill="#eb00ff" d="M19.557 5.389c0.006 0.464-0.347 0.845-0.789 0.85s-0.805-0.366-0.811-0.829c-0.006-0.464 0.347-0.845 0.789-0.85s0.805 0.366 0.811 0.829z"></path>
<path fill="#eb00ff" d="M19.738 19.399c0.006 0.464-0.347 0.845-0.789 0.85s-0.805-0.366-0.811-0.829c-0.006-0.464 0.347-0.845 0.789-0.85s0.805 0.366 0.811 0.829z"></path>
<path fill="#eb00ff" d="M31.521 5.233c0.006 0.464-0.347 0.845-0.789 0.85s-0.805-0.366-0.811-0.829c-0.006-0.464 0.347-0.845 0.789-0.85s0.805 0.366 0.811 0.829z"></path>
<path fill="#eb00ff" d="M31.702 19.243c0.006 0.464-0.347 0.845-0.789 0.85s-0.805-0.366-0.811-0.829c-0.006-0.464 0.347-0.845 0.789-0.85s0.805 0.366 0.811 0.829z"></path>
<path fill="#eb00ff" d="M7.683 12.55c0.006 0.464-0.347 0.845-0.789 0.85s-0.805-0.366-0.811-0.829c-0.006-0.464 0.347-0.845 0.789-0.85s0.805 0.366 0.811 0.829z"></path>
<path fill="#eb00ff" d="M7.866 26.559c0.006 0.464-0.347 0.845-0.789 0.85s-0.805-0.366-0.811-0.829c-0.006-0.464 0.347-0.845 0.789-0.85s0.805 0.366 0.811 0.829z"></path>
<path fill="#eb00ff" d="M19.647 12.394c0.006 0.464-0.347 0.845-0.789 0.85s-0.805-0.366-0.811-0.829c-0.006-0.464 0.347-0.845 0.789-0.85s0.805 0.366 0.811 0.829z"></path>
<path fill="#eb00ff" d="M19.83 26.404c0.006 0.464-0.347 0.845-0.789 0.85s-0.805-0.366-0.811-0.829c-0.006-0.464 0.347-0.845 0.789-0.85s0.805 0.366 0.811 0.829z"></path>
<path fill="#eb00ff" d="M31.611 12.238c0.006 0.464-0.347 0.845-0.789 0.85s-0.805-0.366-0.811-0.829c-0.006-0.464 0.347-0.845 0.789-0.85s0.805 0.366 0.811 0.829z"></path>
<path fill="#eb00ff" d="M31.793 26.248c0.006 0.464-0.347 0.845-0.789 0.85s-0.805-0.366-0.811-0.829c-0.006-0.464 0.347-0.845 0.789-0.85s0.805 0.366 0.811 0.829z"></path>
</svg>
