<!-- Generated by IcoMoon.io -->
<svg version="1.1" xmlns="http://www.w3.org/2000/svg" width="32" height="32" viewBox="0 0 32 32">
<title>Group-2140</title>
<path fill="#377dff" d="M1.896 5.417c0 0.464-0.358 0.84-0.8 0.84s-0.8-0.376-0.8-0.84c0-0.464 0.358-0.84 0.8-0.84s0.8 0.376 0.8 0.84z"></path>
<path fill="#377dff" d="M1.896 19.428c0 0.464-0.358 0.84-0.8 0.84s-0.8-0.376-0.8-0.84c0-0.464 0.358-0.84 0.8-0.84s0.8 0.376 0.8 0.84z"></path>
<path fill="#377dff" d="M13.861 5.417c0 0.464-0.358 0.84-0.8 0.84s-0.8-0.376-0.8-0.84c0-0.464 0.358-0.84 0.8-0.84s0.8 0.376 0.8 0.84z"></path>
<path fill="#377dff" d="M13.861 19.428c0 0.464-0.358 0.84-0.8 0.84s-0.8-0.376-0.8-0.84c0-0.464 0.358-0.84 0.8-0.84s0.8 0.376 0.8 0.84z"></path>
<path fill="#377dff" d="M25.826 5.417c0 0.464-0.358 0.84-0.8 0.84s-0.8-0.376-0.8-0.84c0-0.464 0.358-0.84 0.8-0.84s0.8 0.376 0.8 0.84z"></path>
<path fill="#377dff" d="M25.826 19.428c0 0.464-0.358 0.84-0.8 0.84s-0.8-0.376-0.8-0.84c0-0.464 0.358-0.84 0.8-0.84s0.8 0.376 0.8 0.84z"></path>
<path fill="#377dff" d="M1.896 12.423c0 0.464-0.358 0.84-0.8 0.84s-0.8-0.376-0.8-0.84c0-0.464 0.358-0.84 0.8-0.84s0.8 0.376 0.8 0.84z"></path>
<path fill="#377dff" d="M1.896 26.434c0 0.464-0.358 0.84-0.8 0.84s-0.8-0.376-0.8-0.84c0-0.464 0.358-0.84 0.8-0.84s0.8 0.376 0.8 0.84z"></path>
<path fill="#377dff" d="M13.861 12.423c0 0.464-0.358 0.84-0.8 0.84s-0.8-0.376-0.8-0.84c0-0.464 0.358-0.84 0.8-0.84s0.8 0.376 0.8 0.84z"></path>
<path fill="#377dff" d="M13.861 26.434c0 0.464-0.358 0.84-0.8 0.84s-0.8-0.376-0.8-0.84c0-0.464 0.358-0.84 0.8-0.84s0.8 0.376 0.8 0.84z"></path>
<path fill="#377dff" d="M25.826 12.423c0 0.464-0.358 0.84-0.8 0.84s-0.8-0.376-0.8-0.84c0-0.464 0.358-0.84 0.8-0.84s0.8 0.376 0.8 0.84z"></path>
<path fill="#377dff" d="M25.826 26.434c0 0.464-0.358 0.84-0.8 0.84s-0.8-0.376-0.8-0.84c0-0.464 0.358-0.84 0.8-0.84s0.8 0.376 0.8 0.84z"></path>
<path fill="#377dff" d="M7.879 5.417c0 0.464-0.358 0.84-0.8 0.84s-0.8-0.376-0.8-0.84c0-0.464 0.358-0.84 0.8-0.84s0.8 0.376 0.8 0.84z"></path>
<path fill="#377dff" d="M7.879 19.428c0 0.464-0.358 0.84-0.8 0.84s-0.8-0.376-0.8-0.84c0-0.464 0.358-0.84 0.8-0.84s0.8 0.376 0.8 0.84z"></path>
<path fill="#377dff" d="M19.844 5.417c0 0.464-0.358 0.84-0.8 0.84s-0.8-0.376-0.8-0.84c0-0.464 0.358-0.84 0.8-0.84s0.8 0.376 0.8 0.84z"></path>
<path fill="#377dff" d="M19.844 19.428c0 0.464-0.358 0.84-0.8 0.84s-0.8-0.376-0.8-0.84c0-0.464 0.358-0.84 0.8-0.84s0.8 0.376 0.8 0.84z"></path>
<path fill="#377dff" d="M31.809 5.417c0 0.464-0.358 0.84-0.8 0.84s-0.8-0.376-0.8-0.84c0-0.464 0.358-0.84 0.8-0.84s0.8 0.376 0.8 0.84z"></path>
<path fill="#377dff" d="M31.809 19.428c0 0.464-0.358 0.84-0.8 0.84s-0.8-0.376-0.8-0.84c0-0.464 0.358-0.84 0.8-0.84s0.8 0.376 0.8 0.84z"></path>
<path fill="#377dff" d="M7.879 12.423c0 0.464-0.358 0.84-0.8 0.84s-0.8-0.376-0.8-0.84c0-0.464 0.358-0.84 0.8-0.84s0.8 0.376 0.8 0.84z"></path>
<path fill="#377dff" d="M7.879 26.434c0 0.464-0.358 0.84-0.8 0.84s-0.8-0.376-0.8-0.84c0-0.464 0.358-0.84 0.8-0.84s0.8 0.376 0.8 0.84z"></path>
<path fill="#377dff" d="M19.844 12.423c0 0.464-0.358 0.84-0.8 0.84s-0.8-0.376-0.8-0.84c0-0.464 0.358-0.84 0.8-0.84s0.8 0.376 0.8 0.84z"></path>
<path fill="#377dff" d="M19.844 26.434c0 0.464-0.358 0.84-0.8 0.84s-0.8-0.376-0.8-0.84c0-0.464 0.358-0.84 0.8-0.84s0.8 0.376 0.8 0.84z"></path>
<path fill="#377dff" d="M31.809 12.423c0 0.464-0.358 0.84-0.8 0.84s-0.8-0.376-0.8-0.84c0-0.464 0.358-0.84 0.8-0.84s0.8 0.376 0.8 0.84z"></path>
<path fill="#377dff" d="M31.809 26.434c0 0.464-0.358 0.84-0.8 0.84s-0.8-0.376-0.8-0.84c0-0.464 0.358-0.84 0.8-0.84s0.8 0.376 0.8 0.84z"></path>
</svg>
