<!-- Generated by IcoMoon.io -->
<svg version="1.1" xmlns="http://www.w3.org/2000/svg" width="32" height="32" viewBox="0 0 32 32">
<title>logo</title>
<path fill="#39435a" d="M19.997 2.129l7.377 12.748c0.402 0.695 0.402 1.552 0 2.247l-7.377 12.748c-0.402 0.695-1.146 1.124-1.951 1.124h4.323c0.805 0 1.548-0.428 1.951-1.124l7.377-12.748c0.402-0.695 0.402-1.552 0-2.247l-7.377-12.748c-0.402-0.695-1.146-1.124-1.95-1.124h-4.323c0.805 0 1.548 0.428 1.951 1.124z"></path>
<path fill="#2c374c" d="M19.997 2.129l0.329 0.568c0.559 0.008 1.139 0.054 1.731 0.141 1.178 0.173 2.265 0.488 3.193 0.899l-0.93-1.607c-0.402-0.695-1.146-1.124-1.95-1.124h-4.323c0.805 0 1.548 0.428 1.951 1.124z"></path>
<path fill="#39435a" d="M11.677 2.129l7.377 12.748c0.402 0.695 0.402 1.552 0 2.247l-7.377 12.748c-0.402 0.695-1.146 1.124-1.951 1.124h4.323c0.805 0 1.548-0.428 1.95-1.124l7.377-12.748c0.402-0.695 0.402-1.552 0-2.247l-7.377-12.748c-0.402-0.695-1.146-1.124-1.951-1.124h-4.323c0.805 0 1.548 0.428 1.951 1.124z"></path>
<path fill="#435f94" d="M12.001 29.871l-7.377-12.748c-0.402-0.695-0.402-1.552 0-2.247l7.377-12.748c0.402-0.695 1.146-1.124 1.95-1.124h-4.323c-0.805 0-1.548 0.428-1.951 1.124l-7.377 12.748c-0.402 0.695-0.402 1.552 0 2.247l7.377 12.748c0.402 0.695 1.146 1.124 1.951 1.124h4.323c-0.805 0-1.548-0.428-1.95-1.124z"></path>
<path fill="#377dff" d="M16.263 29.871l-7.377-12.748c-0.402-0.695-0.402-1.552 0-2.247l7.377-12.748c0.402-0.695 1.146-1.123 1.951-1.123h-4.323c-0.805 0-1.548 0.428-1.95 1.124l-7.377 12.748c-0.402 0.695-0.402 1.552 0 2.247l7.377 12.748c0.402 0.695 1.146 1.124 1.95 1.124h4.323c-0.805-0-1.548-0.428-1.95-1.124z"></path>
<path fill="#37dbff" d="M20.607 29.871l-7.377-12.748c-0.402-0.695-0.402-1.552 0-2.247l7.377-12.748c0.402-0.695 1.146-1.123 1.951-1.123h-4.323c-0.805 0-1.548 0.428-1.95 1.124l-7.377 12.748c-0.402 0.695-0.402 1.552 0 2.247l7.377 12.748c0.402 0.695 1.146 1.124 1.95 1.124h4.323c-0.805-0-1.548-0.428-1.951-1.124z"></path>
</svg>
