<!-- Generated by IcoMoon.io -->
<svg version="1.1" xmlns="http://www.w3.org/2000/svg" width="32" height="32" viewBox="0 0 32 32">
<title>twitter</title>
<path fill="none" stroke-linejoin="round" stroke-linecap="round" stroke-miterlimit="4" stroke-width="2.9091" stroke="#000" d="M30.397 4.397c-1.254 0.884-2.642 1.561-4.111 2.003-0.788-0.907-1.836-1.549-3.002-1.841s-2.392-0.218-3.515 0.21c-1.122 0.428-2.086 1.191-2.761 2.185s-1.028 2.171-1.012 3.373v1.309c-2.301 0.060-4.58-0.451-6.636-1.485s-3.823-2.562-5.146-4.445c0 0-5.236 11.782 6.545 17.018-2.696 1.83-5.908 2.748-9.164 2.618 11.782 6.545 26.182 0 26.182-15.055-0.001-0.365-0.036-0.728-0.105-1.087 1.336-1.318 2.279-2.981 2.723-4.804v0z"></path>
</svg>
