<!-- Generated by IcoMoon.io -->
<svg version="1.1" xmlns="http://www.w3.org/2000/svg" width="32" height="32" viewBox="0 0 32 32">
<title>instagram</title>
<path fill="none" stroke-linejoin="round" stroke-linecap="round" stroke-miterlimit="4" stroke-width="2.9091" stroke="#000" d="M22.545 3.087h-13.091c-3.615 0-6.545 2.93-6.545 6.545v13.091c0 3.615 2.93 6.545 6.545 6.545h13.091c3.615 0 6.545-2.931 6.545-6.545v-13.091c0-3.615-2.93-6.545-6.545-6.545z"></path>
<path fill="none" stroke-linejoin="round" stroke-linecap="round" stroke-miterlimit="4" stroke-width="2.9091" stroke="#000" d="M21.234 15.354c0.161 1.090-0.025 2.202-0.532 3.18s-1.31 1.77-2.294 2.266c-0.984 0.495-2.099 0.668-3.186 0.493s-2.092-0.688-2.871-1.467c-0.779-0.779-1.292-1.783-1.467-2.871s-0.003-2.202 0.493-3.186c0.495-0.984 1.288-1.786 2.266-2.294s2.090-0.693 3.18-0.532c1.111 0.165 2.14 0.683 2.935 1.477s1.312 1.823 1.477 2.935z"></path>
<path fill="none" stroke-linejoin="round" stroke-linecap="round" stroke-miterlimit="4" stroke-width="2.9091" stroke="#000" d="M23.199 8.979h0.013"></path>
</svg>
