<!-- Generated by IcoMoon.io -->
<svg version="1.1" xmlns="http://www.w3.org/2000/svg" width="32" height="32" viewBox="0 0 32 32">
<title>linkedin</title>
<path fill="none" stroke-linejoin="round" stroke-linecap="round" stroke-miterlimit="4" stroke-width="2.9091" stroke="#000" d="M21.235 10.942c2.083 0 4.081 0.828 5.554 2.301s2.3 3.471 2.3 5.554v9.164h-5.236v-9.164c0-0.694-0.276-1.36-0.767-1.851s-1.157-0.767-1.851-0.767c-0.694 0-1.36 0.276-1.851 0.767s-0.767 1.157-0.767 1.851v9.164h-5.236v-9.164c0-2.083 0.828-4.081 2.3-5.554s3.471-2.301 5.554-2.301v0z"></path>
<path fill="none" stroke-linejoin="round" stroke-linecap="round" stroke-miterlimit="4" stroke-width="2.9091" stroke="#000" d="M8.145 12.251h-5.236v15.709h5.236v-15.709z"></path>
<path fill="none" stroke-linejoin="round" stroke-linecap="round" stroke-miterlimit="4" stroke-width="2.9091" stroke="#000" d="M5.527 8.324c1.446 0 2.618-1.172 2.618-2.618s-1.172-2.618-2.618-2.618c-1.446 0-2.618 1.172-2.618 2.618s1.172 2.618 2.618 2.618z"></path>
</svg>
